<svg width="203" height="204" viewBox="0 0 203 204" fill="none" xmlns="http://www.w3.org/2000/svg">
<path d="M173.731 2.93595C177.627 -0.978643 183.943 -0.978631 187.839 2.93595L199.289 14.4399C203.185 18.3544 203.185 24.702 199.289 28.6166L126.663 101.591L199.289 174.566C203.185 178.48 203.185 184.827 199.289 188.742L187.839 200.246C183.943 204.161 177.627 204.161 173.731 200.246L101.105 127.271L28.4795 200.246C24.5836 204.161 18.2669 204.161 14.3711 200.246L2.92184 188.742C-0.973883 184.827 -0.973978 178.48 2.92184 174.566L75.5478 101.59L2.92184 28.6156C-0.973905 24.701 -0.973985 18.3544 2.92184 14.4399L14.3711 2.93595C18.2669 -0.978649 24.5836 -0.978649 28.4795 2.93595L101.105 75.9106L173.731 2.93595Z" fill="#F23232"/>
</svg>
