<svg width="52" height="52" viewBox="0 0 52 52" fill="none" xmlns="http://www.w3.org/2000/svg">
<path d="M43.7029 0.87868C44.8745 -0.292893 46.7745 -0.292893 47.9461 0.87868L50.2088 3.1404C51.3803 4.31192 51.3802 6.21198 50.2088 7.38356L32.0486 25.5427L50.2088 43.7029C51.3799 44.8744 51.3799 46.7736 50.2088 47.9451L47.9461 50.2078C46.7745 51.3794 44.8745 51.3794 43.7029 50.2078L25.5427 32.0476L7.38356 50.2078C6.21198 51.3793 4.31292 51.3793 3.14137 50.2078L0.87868 47.9451C-0.292719 46.7735 -0.29276 44.8744 0.87868 43.7029L19.0379 25.5427L0.87868 7.38356C-0.292893 6.21199 -0.292893 4.31197 0.87868 3.1404L3.14137 0.87868C4.31295 -0.292893 6.21199 -0.292893 7.38356 0.87868L25.5427 19.0379L43.7029 0.87868Z" fill="#F23232"/>
</svg>
